<svg width="227" height="67" viewBox="0 0 227 67" fill="none" xmlns="http://www.w3.org/2000/svg">
<path fill-rule="evenodd" clip-rule="evenodd" d="M31.3319 33.6525C31.9568 33.6525 32.5037 34.2029 32.5037 34.832C32.5037 35.2251 32.2693 35.6182 31.9568 35.7755V38.5274L30.0038 40.4931V44.2672C30.0038 44.5818 29.6914 44.8963 29.3789 44.8963C29.0664 44.8963 28.7539 44.5818 28.7539 44.2672V40.1786C28.7539 40.1 28.7539 40.1 28.7539 40.0214C28.7539 40.0214 28.7539 40.0214 28.832 39.9427L30.5507 38.2129V35.9327C30.2382 35.6969 30.0038 35.3823 30.0038 34.9892C30.1601 34.1243 30.7069 33.6525 31.3319 33.6525ZM25.0823 0C22.27 1.02216 19.5358 2.51608 17.3485 4.48176C14.9268 6.6047 12.9738 9.27804 11.7239 12.2659C10.9427 14.1529 10.3958 16.1186 10.1615 18.1629C9.61462 23.7455 11.802 28.6204 16.0204 32.2372C16.6454 32.7876 17.2703 33.338 17.8172 33.8884C18.2078 34.3602 18.5984 34.7533 18.8327 35.3823C18.8327 35.3823 18.8327 35.461 18.9109 35.461C18.6765 35.7755 18.4421 36.09 18.2078 36.3259C18.2078 36.09 18.1297 35.8541 18.0515 35.6969C17.8953 35.2251 17.5828 34.9106 17.2703 34.5174C16.7235 33.9671 16.0986 33.4167 15.4736 32.9449C11.0208 29.0922 8.75531 23.9814 9.30214 18.0843C9.5365 15.9614 10.0833 13.9171 10.8645 11.9514C12.8956 7.31235 15.708 4.08863 20.0827 1.65118C14.2237 3.53823 5.08369 9.35666 3.52129 17.5339C3.44317 17.3767 3.20881 16.9835 3.05258 16.669C0.787106 21.7798 -0.306568 29.8784 2.27138 34.0457C1.88078 33.8884 1.5683 33.7312 1.41206 33.4953C2.03702 36.5618 3.13069 41.9084 7.66163 41.8298C6.56796 42.0657 5.39616 42.0657 4.61497 41.9084C5.70864 43.8741 7.50539 46.6261 10.1615 46.4688C9.77086 46.7833 8.91155 47.0192 8.44283 47.0978C9.30214 48.0414 10.8645 49.9284 13.3644 49.6139C13.0519 49.9284 12.505 50.0857 11.802 50.1643C12.9738 51.1078 14.2237 51.8941 15.5517 52.6018C15.708 52.9949 15.9423 53.4667 16.0986 53.8598C13.9893 52.8376 11.9582 51.501 10.1615 49.9284C10.3958 49.9284 10.5521 49.9284 10.7083 49.8498C8.75531 49.1421 7.81787 47.7269 6.95856 46.7047C7.19291 46.7047 7.34915 46.7047 7.50539 46.6261C5.47428 45.6039 4.06813 42.8519 3.13069 41.1221C3.36505 41.2008 3.75565 41.2008 3.91189 41.1221C1.49018 38.8419 0.708987 35.0678 0.240269 32.0014C0.396508 32.08 0.474628 32.1586 0.552748 32.1586C-0.462807 27.6769 -0.306568 21.7012 2.97446 15.0965C3.05258 15.2537 3.13069 15.3323 3.28693 15.411C6.41172 6.68333 15.6298 0.786274 25.0823 0ZM37.269 62.4302C36.8002 62.7447 36.3315 63.0592 36.1753 63.6882C35.4722 64.0814 34.9254 64.3172 33.9098 64.4745C34.9254 64.6318 35.8628 64.5531 36.8784 64.3172C36.8002 63.6096 36.9565 62.9019 37.269 62.4302ZM39.5344 59.5996C39.5344 59.9141 39.5344 60.3072 39.5344 60.5431C39.222 60.779 38.597 61.0149 38.0502 61.0935C39.0657 61.2508 40.0032 61.1721 40.8625 60.779C40.3156 60.5431 39.925 60.2286 39.5344 59.5996ZM37.5033 61.8798C39.0657 62.3516 40.8625 62.3516 42.5811 61.0149C41.0968 60.15 39.8469 58.9706 39.0657 57.4767L39.7688 56.8476C40.6281 58.6561 42.1905 59.9927 44.1435 60.779C42.8936 62.3516 40.8625 63.2165 39.1438 63.0592C38.5189 63.7668 38.2845 65.1035 38.9095 65.9684C35.7066 66.3616 33.8317 66.9119 31.6444 65.1821L31.8006 64.16C32.5818 64.7104 33.1286 65.1821 34.0661 65.3394C34.691 65.418 35.3941 65.418 36.0191 65.3394C36.5659 65.2608 37.0346 65.1821 37.5814 65.1821C37.5033 64.3172 37.6596 63.3737 38.2064 62.7447C37.972 62.4302 37.6596 62.2729 37.5033 61.8798ZM20.0045 62.4302C20.4732 62.7447 20.942 63.0592 21.0982 63.6882C21.8013 64.0814 22.3481 64.3172 23.3637 64.4745C22.3481 64.6318 21.4107 64.5531 20.3951 64.3172C20.3951 63.6096 20.2389 62.9019 20.0045 62.4302ZM17.6609 59.5996C17.6609 59.9141 17.6609 60.3072 17.6609 60.5431C17.9734 60.779 18.5984 61.0149 19.1452 61.0935C18.1297 61.2508 17.1922 61.1721 16.3329 60.779C16.9579 60.5431 17.2703 60.2286 17.6609 59.5996ZM19.6921 61.8798C18.1297 62.3516 16.3329 62.3516 14.6143 61.0149C16.0986 60.15 17.3485 58.9706 18.1297 57.4767L17.4266 56.8476C16.5673 58.6561 15.0049 59.9927 13.0519 60.779C14.3018 62.3516 16.3329 63.2165 18.0515 63.0592C18.6765 63.7668 18.9109 65.1035 18.2859 65.9684C21.4888 66.3616 23.3637 66.9119 25.551 65.1821L25.3948 64.16C24.6136 64.7104 24.0668 65.1821 23.1293 65.3394C22.5044 65.418 21.8013 65.418 21.1763 65.3394C20.6295 65.2608 20.1608 65.1821 19.6139 65.1821C19.6921 64.3172 19.5358 63.3737 18.989 62.7447C19.3015 62.4302 19.5358 62.2729 19.6921 61.8798ZM38.2845 35.461C38.5189 35.7755 38.7532 36.09 38.9876 36.3259C38.9876 36.09 39.0657 35.8541 39.1438 35.6969C39.3001 35.2251 39.6126 34.9106 39.925 34.5174C40.4719 33.9671 41.0968 33.4167 41.7218 32.9449C46.1746 29.0922 48.4401 23.9814 47.8932 18.0843C47.6589 15.9614 47.112 13.9171 46.3308 11.9514C44.2997 7.23372 41.4874 4.01 37.1127 1.57255C42.9717 3.45961 52.1898 9.27804 53.7522 17.4553C53.8303 17.298 54.0647 16.9049 54.2209 16.5904C56.4864 21.7012 57.5019 29.8784 55.0021 33.9671C55.3927 33.8098 55.7052 33.6525 55.8614 33.4167C55.2365 36.4831 54.1428 41.8298 49.6119 41.7512C50.7055 41.987 51.8773 41.987 52.6585 41.8298C51.5649 43.7955 49.7681 46.5474 47.112 46.3902C47.5026 46.7047 48.3619 46.9406 48.8307 47.0192C47.9714 47.9627 46.409 49.8498 43.9091 49.5353C44.2216 49.8498 44.7684 50.007 45.4715 50.0857C44.2997 51.0292 43.0498 51.8155 41.7218 52.5231C41.5655 52.9163 41.3312 53.388 41.1749 53.7812C43.2842 52.759 45.3153 51.4223 47.112 49.8498C46.8777 49.8498 46.7214 49.8498 46.5652 49.7712C48.5182 49.0635 49.4556 47.6482 50.3149 46.6261C50.0806 46.6261 49.9243 46.6261 49.7681 46.5474C51.7992 45.5253 53.2054 42.7733 54.1428 41.0435C53.9084 41.1221 53.5178 41.1221 53.3616 41.0435C55.7833 38.7633 56.5645 34.9892 57.0332 31.9227C56.877 32.0014 56.7989 32.08 56.7207 32.08C57.7363 27.5982 57.5801 21.6225 54.299 15.0178C54.2209 15.1751 54.1428 15.2537 53.9866 15.3323C50.8618 6.68333 41.6437 0.786274 32.1131 0C34.9254 1.02216 37.6596 2.51608 39.8469 4.48176C42.2686 6.6047 44.2216 9.27804 45.4715 12.2659C46.2527 14.1529 46.7996 16.1186 47.0339 18.1629C47.5808 23.7455 45.3934 28.6204 41.1749 32.2372C40.55 32.7876 39.925 33.338 39.3782 33.8884C38.9876 34.3602 38.597 34.7533 38.3626 35.3823C38.3626 35.3823 38.3626 35.3823 38.2845 35.461ZM27.5821 28.9349C26.6447 28.6204 26.3322 27.6769 26.7228 26.6547C26.7228 27.3623 26.9572 27.9127 27.504 28.1486C28.0508 27.7555 28.2071 27.2051 28.0509 26.4974C28.5977 27.5196 28.4414 28.5418 27.5821 28.9349ZM34.3785 24.5318C33.9098 24.2959 33.4411 24.2172 32.9724 24.2172C32.738 24.2172 32.5037 24.06 32.5818 23.5882C32.1131 24.689 31.9568 25.318 30.5507 25.0035C29.7695 24.8463 29.3789 25.4753 29.5351 26.1829C29.6132 26.5761 29.7695 27.2051 29.3789 27.5982C29.2226 26.9692 28.832 26.6547 28.4415 26.4188C29.1445 27.441 28.832 28.07 28.6758 28.3845C30.3163 28.07 30.3163 29.4067 30.082 30.0357C30.4726 30.0357 30.8632 30.1143 31.1756 30.1143C30.785 28.7776 30.4726 27.441 30.3163 26.0257C30.3163 25.7898 30.3163 25.7112 30.4726 25.7898C31.41 25.9471 32.2693 25.7898 32.8161 25.0035C33.7536 24.9249 34.4567 25.2394 35.1597 25.7112C35.316 24.2172 35.3941 22.802 33.5973 22.2516C33.363 21.3867 32.6599 21.0722 31.8006 21.1508C30.6288 19.3423 26.4885 21.2294 24.8479 20.05C24.3011 19.6569 24.1449 18.9492 24.0668 18.3202C23.5199 18.8706 23.0512 19.2637 22.8168 20.05C22.4262 21.1508 22.6606 22.4874 23.3637 23.431C23.8324 24.06 24.5355 24.5318 25.2385 24.689C25.1604 24.7676 25.0823 24.8463 25.0823 24.9249C24.1449 26.4188 24.3011 28.6204 24.3011 30.3502C24.5355 30.2716 24.8479 30.2716 25.0823 30.1929C24.8479 29.4067 25.0823 28.4631 26.2541 28.3845C26.0979 28.07 25.8635 27.441 26.4885 26.4188C26.0979 26.5761 25.7073 26.9692 25.551 27.5982C25.2385 27.1265 25.2385 26.6547 25.3948 26.2616C25.4729 26.0257 25.551 25.8684 25.6291 25.7112V25.6325C26.4103 24.06 29.2226 25.0821 30.0038 22.6447C29.7695 22.9592 29.457 23.1951 29.1445 23.3523C28.6758 23.5882 28.2852 22.6447 27.6603 22.6447C27.8946 22.802 27.9727 23.1165 27.9727 23.431C27.8946 23.7455 27.7384 23.8241 27.504 23.5882C27.2697 23.3523 27.1134 22.8806 26.6447 22.802C26.8791 23.0378 26.8791 23.3523 26.8009 23.5882C26.7228 23.9027 26.4885 24.06 26.2541 23.7455C26.0979 23.5882 26.0197 23.2737 25.7854 23.1165C25.8635 23.5096 25.4729 23.9027 25.0042 23.6669C24.3011 23.3523 23.8324 22.8806 23.5199 22.1729C23.2856 21.4653 23.2856 20.679 23.598 20.05C23.598 20.05 23.598 20.05 23.598 19.9714C25.0823 22.7233 30.3944 20.05 31.0975 21.7798L31.1756 22.0943H31.4881C32.035 22.0157 32.6599 22.0157 32.738 22.7233V23.0378L32.9724 23.1165C33.9879 23.1951 34.3785 23.7455 34.3785 24.5318ZM25.8635 30.1143C26.0197 29.7998 26.2541 29.6425 26.4103 29.4853C26.3322 29.7212 26.2541 29.8784 26.176 30.1143C26.0979 30.1143 26.0197 30.1143 25.8635 30.1143ZM29.1445 30.0357C29.0664 29.7998 28.832 29.4853 28.5977 29.1708C28.9883 29.2494 29.3789 29.4853 29.6914 30.0357C29.5351 30.0357 29.3008 30.0357 29.1445 30.0357ZM26.7228 30.0357C26.7228 29.8784 26.8009 29.7212 26.8009 29.5639C26.8009 29.7212 26.8009 29.8784 26.8791 29.9571L26.7228 30.0357ZM28.3633 30.0357C28.3633 29.8784 28.2852 29.6425 28.2852 29.4067C28.4414 29.6425 28.5196 29.7998 28.5977 30.0357H28.3633ZM8.52095 21.0722C8.36471 26.1829 10.4739 30.5074 14.9268 34.6747C15.8642 35.6969 15.9423 36.7976 16.2548 37.8198C16.411 37.7412 16.5673 37.6625 16.7235 37.5053C16.6454 37.0335 16.6454 36.6404 16.5673 36.3259C16.8016 36.4831 16.9579 36.7976 17.1141 37.2694C17.2703 37.1908 17.3485 37.0335 17.5047 36.9549C17.5047 36.7976 17.4266 36.6404 17.4266 36.4831C17.4266 36.3259 17.3485 36.09 17.2703 35.9327C16.9579 35.1465 15.5517 34.0457 14.9268 33.4953C11.177 30.1929 8.83343 25.9471 8.52095 21.0722ZM8.75531 28.7776C3.36505 23.9814 4.69309 15.4896 8.83343 12.03C8.36471 13.9957 8.28659 15.9614 8.52095 18.0057C8.75531 15.8041 9.30214 13.6812 10.1615 11.6369C11.177 9.27804 12.6613 6.91921 14.5362 4.8749C10.4739 7.46961 6.3336 11.401 4.77121 15.8827C3.44317 19.8927 4.06813 25.8684 8.75531 28.7776ZM2.81822 20.05C0.552747 27.5196 1.25582 36.6404 8.36471 34.6747C3.99001 34.832 2.42762 32.08 2.81822 26.0257C3.91189 28.699 6.25548 30.1143 8.44283 30.822C5.00557 28.3845 2.97446 25.7112 2.81822 20.05ZM2.7401 35.6969C3.83377 41.2794 7.42727 41.5153 9.5365 39.471C7.03667 40.8076 5.31804 39.6282 4.53685 37.7412C6.56796 37.8984 7.58351 37.348 8.59907 36.4831C6.80232 37.0335 4.92745 37.1121 2.7401 35.6969ZM6.17736 43.0878C8.75531 47.0978 11.4114 45.1321 12.1144 43.7169C10.9427 44.739 9.22402 44.8963 8.36471 43.7955C9.45838 43.3237 10.2396 42.4588 10.6302 41.5939C9.30214 42.6161 7.81787 43.0878 6.17736 43.0878ZM13.0519 44.739C12.3488 46.1543 11.2551 47.0978 9.84898 47.491C11.177 48.9849 13.2862 49.2208 14.1456 48.0414C14.1456 47.8055 14.0674 47.6482 14.0674 47.4123C13.5206 48.0414 12.6613 48.2772 11.802 47.6482C12.505 46.7833 12.8956 45.8398 13.0519 44.739ZM14.8486 50.7933C14.7705 50.4788 14.6924 50.1643 14.6143 49.9284C14.3018 50.3216 13.9893 50.4788 13.5206 50.5574C14.1456 50.9506 14.6143 51.0292 14.8486 50.7933ZM9.1459 30.4288C8.20847 35.461 10.7083 34.9106 12.1926 34.7533C10.7864 34.5174 9.61462 33.967 9.69274 32.4731C10.3958 32.9449 11.4114 33.1021 12.1926 33.1021C10.3958 32.3159 9.5365 30.9006 9.1459 30.4288ZM9.22402 35.461C9.1459 39.9427 11.8801 38.842 12.8175 37.8984C11.4895 38.3702 10.3958 38.1343 10.3177 36.8763C11.4114 36.9549 12.1145 36.4831 12.5832 36.0114C10.5521 36.5618 9.69274 35.8541 9.22402 35.461ZM10.2396 39.9427C11.4895 43.0878 12.8956 42.2229 13.6768 41.1221C13.6768 40.9649 13.6768 40.8863 13.6768 40.729C12.8175 41.4367 12.0363 41.5153 11.7239 40.8076C12.7394 40.3359 13.13 39.5496 13.2862 38.9206C11.8801 40.2572 10.7864 40.0214 10.2396 39.9427ZM12.1926 43.0878C12.8175 44.0314 13.3644 44.5031 13.755 44.739C13.6768 44.11 13.6768 43.4023 13.6768 42.7733C13.0519 43.1665 12.505 43.0878 12.1926 43.0878ZM12.8175 34.6747C12.8956 37.977 14.458 37.348 15.3174 36.9549C14.458 37.0335 13.5987 36.8763 13.5987 35.8541C14.1456 36.0114 14.6143 35.9327 15.083 35.8541C13.8331 35.6969 13.0519 34.9106 12.8175 34.6747ZM13.3644 37.8984C13.5206 38.4488 13.6768 38.8419 13.8331 39.1565V38.9206L14.2237 38.7633C14.2237 38.6847 14.2237 38.6847 14.1456 38.6061C14.8486 38.4488 15.1611 38.0557 15.3955 37.6625C14.3018 38.3702 13.6768 38.0557 13.3644 37.8984ZM7.27103 16.04C5.943 18.5561 5.70864 23.5882 8.67719 27.1265C7.97411 26.1829 6.95856 22.8806 7.34915 20.2073C6.95856 19.0278 6.88044 17.5339 7.27103 16.04ZM3.99001 30.0357C4.45873 32.2372 5.63052 33.5739 7.73975 33.6525C6.88044 33.2594 6.17736 32.8663 5.78676 32.2372C6.3336 32.3159 6.95856 32.3159 7.58351 32.08C6.09924 31.8441 4.92745 31.0578 3.99001 30.0357ZM6.88044 38.6847C7.42727 39.1565 8.13035 39.2351 8.83343 38.9206C8.59907 38.9206 8.36471 38.842 8.20847 38.6847C8.36471 38.5274 8.44283 38.2916 8.44283 38.1343C8.05223 38.5274 7.42727 38.6847 6.88044 38.6847ZM9.84898 43.6382C10.3958 43.7169 11.0208 43.7955 11.4895 43.2451C11.2551 43.3237 11.0989 43.3237 10.9427 43.2451C11.0208 43.0092 11.0208 42.7733 10.9427 42.5374C10.7864 43.0092 10.3958 43.4023 9.84898 43.6382ZM12.8956 47.0978C13.2862 47.0192 13.6768 46.8619 13.9112 46.5474C13.9112 46.4688 13.9112 46.3902 13.9112 46.2329C13.8331 46.2329 13.755 46.3116 13.6768 46.2329C13.6768 46.0757 13.5206 45.7612 13.3644 45.6039C13.4425 46.1543 13.2081 46.7047 12.8956 47.0978ZM48.7525 21.0722C48.9088 26.1829 46.7996 30.5074 42.3467 34.6747C41.4093 35.6969 41.3312 36.7976 41.0187 37.8198C40.8625 37.7412 40.7062 37.6625 40.55 37.5053C40.6281 37.0335 40.6281 36.6404 40.7062 36.3259C40.4719 36.4831 40.3156 36.7976 40.1594 37.2694C40.0032 37.1908 39.925 37.0335 39.7688 36.9549C39.7688 36.7976 39.8469 36.6404 39.8469 36.4831C39.8469 36.3259 39.925 36.09 40.0032 35.9327C40.3156 35.1465 41.7218 34.0457 42.3467 33.4953C46.0965 30.1929 48.3619 25.9471 48.7525 21.0722ZM48.4401 28.7776C53.8303 23.9027 52.5023 15.4896 48.3619 11.9514C48.8307 13.9171 48.9088 15.8827 48.6744 17.9271C48.4401 15.7255 47.8932 13.6025 47.0339 11.5582C46.0184 9.19941 44.5341 6.84059 42.6592 4.79627C46.7214 7.39098 50.8618 11.3224 52.4242 15.8041C53.8303 19.8927 53.2054 25.8684 48.4401 28.7776ZM54.3772 20.05C56.6426 27.5196 55.9396 36.6404 48.8307 34.6747C53.2054 34.832 54.7678 32.08 54.3772 26.0257C53.2835 28.699 50.9399 30.1143 48.7525 30.822C52.1898 28.3845 54.2209 25.7112 54.3772 20.05ZM54.4553 35.6969C53.3616 41.2794 49.7681 41.5153 47.6589 39.471C50.1587 40.8076 51.8773 39.6282 52.6585 37.7412C50.6274 37.8984 49.6119 37.348 48.5963 36.4831C50.4712 37.0335 52.3461 37.1121 54.4553 35.6969ZM51.018 43.0878C48.4401 47.0978 45.784 45.1321 45.0809 43.7169C46.2527 44.739 47.9714 44.8963 48.8307 43.7955C47.737 43.3237 46.9558 42.4588 46.5652 41.5939C47.9714 42.6161 49.4556 43.0878 51.018 43.0878ZM44.2216 44.739C44.9247 46.1543 46.0184 47.0978 47.4245 47.491C46.0965 48.9849 43.9873 49.2208 43.1279 48.0414C43.1279 47.8055 43.2061 47.6482 43.2061 47.4123C43.7529 48.0414 44.6122 48.2772 45.4715 47.6482C44.7684 46.7833 44.3778 45.8398 44.2216 44.739ZM42.4249 50.7933C42.503 50.4788 42.5811 50.1643 42.6592 49.9284C42.9717 50.3216 43.2842 50.4788 43.7529 50.5574C43.0498 50.9506 42.6592 51.0292 42.4249 50.7933ZM48.0495 30.4288C48.9869 35.461 46.4871 34.9106 45.0028 34.7533C46.409 34.5174 47.5808 33.967 47.5026 32.4731C46.8777 32.9449 45.784 33.0235 45.0809 33.0235C46.8777 32.3159 47.6589 30.9006 48.0495 30.4288ZM47.9714 35.461C48.0495 39.9427 45.3153 38.842 44.3778 37.8984C45.7059 38.3702 46.7996 38.1343 46.8777 36.8763C45.784 36.9549 45.0809 36.4831 44.6122 36.0114C46.6433 36.5618 47.5808 35.8541 47.9714 35.461ZM46.9558 39.9427C45.7059 43.0878 44.2997 42.2229 43.5185 41.1221C43.5185 40.9649 43.5185 40.8863 43.5185 40.729C44.3778 41.4367 45.159 41.5153 45.4715 40.8076C44.456 40.3359 44.0654 39.5496 43.9091 38.9206C45.3153 40.2572 46.409 40.0214 46.9558 39.9427ZM45.0809 43.0878C44.456 44.0314 43.9091 44.5031 43.5185 44.739C43.5967 44.11 43.5967 43.4023 43.5967 42.7733C44.1435 43.1665 44.6903 43.0878 45.0809 43.0878ZM44.456 34.6747C44.3778 37.977 42.8155 37.348 41.9561 36.9549C42.8155 37.0335 43.6748 36.8763 43.6748 35.8541C43.1279 36.0114 42.6592 35.9327 42.1905 35.8541C43.4404 35.6969 44.1435 34.9106 44.456 34.6747ZM43.9091 37.8984C43.7529 38.4488 43.5967 38.8419 43.4404 39.1565V38.9206L42.9717 38.7633C42.9717 38.6847 42.9717 38.6847 43.0498 38.6061C42.3467 38.4488 42.0343 38.0557 41.7999 37.6625C42.8936 38.3702 43.5967 38.0557 43.9091 37.8984ZM49.9243 16.04C51.2524 18.5561 51.4867 23.5882 48.5182 27.1265C49.2213 26.1829 50.2368 22.8806 49.8462 20.2073C50.2368 19.0278 50.3931 17.5339 49.9243 16.04ZM53.2054 30.0357C52.7366 32.2372 51.5649 33.5739 49.4556 33.6525C50.3149 33.2594 51.018 32.8663 51.4086 32.2372C50.8618 32.3159 50.2368 32.3159 49.6119 32.08C51.1743 31.8441 52.3461 31.0578 53.2054 30.0357ZM50.3931 38.6847C49.8462 39.1565 49.1431 39.2351 48.4401 38.9206C48.6744 38.9206 48.9088 38.842 49.065 38.6847C48.9088 38.5274 48.8307 38.2916 48.8307 38.1343C49.2213 38.5274 49.7681 38.6847 50.3931 38.6847ZM47.4245 43.6382C46.8777 43.7169 46.2527 43.7955 45.784 43.2451C46.0184 43.3237 46.1746 43.3237 46.3308 43.2451C46.2527 43.0092 46.2527 42.7733 46.3308 42.5374C46.409 43.0092 46.8777 43.4023 47.4245 43.6382ZM44.3778 47.0978C43.9873 47.0192 43.5967 46.8619 43.3623 46.5474C43.3623 46.4688 43.3623 46.3902 43.3623 46.2329C43.4404 46.2329 43.5185 46.3116 43.5967 46.2329C43.5967 46.0757 43.7529 45.7612 43.9091 45.6039C43.831 46.1543 43.9873 46.7047 44.3778 47.0978ZM28.6758 21.6225C29.7695 22.1729 30.5507 21.7012 31.1756 22.0157C31.6444 22.2516 31.8787 23.1951 31.2538 23.3523C31.2538 22.8806 30.8632 22.9592 30.6288 22.9592C30.3944 22.9592 30.1601 22.7233 30.1601 22.4874C30.1601 22.4088 30.1601 22.3302 30.2382 22.2516C29.6914 22.2516 29.0664 22.1729 28.6758 21.6225ZM24.223 21.3867C24.1449 22.1729 24.4573 22.802 25.1604 23.1951C25.0042 22.8806 24.9261 22.5661 24.8479 22.1729C26.0197 22.3302 27.2697 22.0943 28.2852 21.6225C26.7228 22.0157 25.3948 21.8584 24.223 21.3867ZM37.6596 49.7712C38.2845 50.0857 38.9095 50.0857 39.5344 49.9284C40.1594 49.7712 40.7062 49.4567 41.0968 48.9063C41.6437 48.2772 41.7999 47.491 41.7218 46.7833C41.6437 46.2329 41.4093 45.6039 41.0187 45.1321C41.1749 44.8176 41.2531 44.5031 41.3312 44.11C41.4093 43.481 41.4093 42.8519 41.1749 42.3016C40.9406 41.7512 40.6281 41.2794 40.1594 40.8076C39.6907 40.4145 39.0657 40.1786 38.5189 40.0214C37.8939 39.9427 37.269 40.0214 36.7221 40.1786C36.3315 40.3359 35.9409 40.5718 35.6285 40.8076C35.0816 40.4931 34.5348 40.4145 33.9879 40.4931C33.2849 40.5718 32.5037 40.8863 32.035 41.5153C31.6444 41.987 31.41 42.6161 31.3319 43.2451C31.3319 43.8741 31.4881 44.5031 31.8787 45.0535C32.035 45.368 32.4255 45.368 32.738 45.2108C33.0505 45.0535 33.0505 44.6604 32.8943 44.3459C32.6599 44.0314 32.5818 43.6382 32.5818 43.3237C32.5818 42.9306 32.738 42.6161 32.9724 42.3016C33.2849 41.9084 33.6755 41.7512 34.1442 41.6725C34.3785 41.6725 34.691 41.6725 34.9254 41.7512C34.7691 42.0657 34.6129 42.4588 34.5348 42.7733C34.4567 43.0878 34.691 43.4023 35.0035 43.481C35.316 43.5596 35.6285 43.3237 35.7066 43.0092C35.7847 42.6161 35.9409 42.2229 36.1753 41.987C36.4096 41.6725 36.8002 41.4367 37.1127 41.2794C37.5033 41.1221 37.8939 41.1221 38.2845 41.2008C38.6751 41.2794 38.9876 41.4367 39.3001 41.6725C39.6126 41.9084 39.8469 42.3016 40.0032 42.6161C40.1594 43.0092 40.1594 43.4023 40.0813 43.7955C40.0032 44.1886 39.8469 44.5818 39.6126 44.8963C39.3782 45.2108 39.0657 45.4467 38.6751 45.5253C38.3626 45.6039 38.2064 45.997 38.2845 46.3116C38.3626 46.6261 38.7532 46.7833 39.0657 46.7047C39.5344 46.5474 39.8469 46.3116 40.1594 45.997C40.3156 46.2329 40.3937 46.4688 40.3937 46.7047C40.4719 47.1765 40.3156 47.5696 40.0032 47.9627C39.7688 48.2772 39.4563 48.4345 39.0657 48.5131C38.6751 48.5918 38.3626 48.5918 37.972 48.4345C37.6596 48.2772 37.269 48.4345 37.1908 48.749C37.1908 49.2994 37.3471 49.6925 37.6596 49.7712ZM37.0346 51.0292C37.0346 51.2651 37.0346 51.4223 37.0346 51.6582V51.8941L35.2379 52.6804L35.1597 52.9163C35.0816 53.1521 35.0035 53.388 34.9254 53.6239C34.8473 53.8598 34.691 54.0957 34.6129 54.3316L34.4567 54.5674L35.1597 56.3759C35.0035 56.6117 34.7691 56.8476 34.6129 57.0049C34.3785 57.2408 34.2223 57.398 33.9879 57.5553L32.1912 56.8476L31.9568 57.0049C31.7225 57.0835 31.4881 57.2408 31.2538 57.3194C31.0194 57.398 30.785 57.4767 30.5507 57.5553L30.2382 57.6339L29.457 59.4423H29.2226C29.0664 59.4423 28.832 59.4423 28.5977 59.4423C28.3633 59.4423 28.2071 59.4423 27.9727 59.4423H27.7384L26.9572 57.6339L26.6447 57.5553C26.4103 57.4767 26.176 57.398 25.9416 57.3194C25.7073 57.2408 25.4729 57.0835 25.2385 57.0049L25.0042 56.8476L23.2074 57.5553C22.9731 57.398 22.7387 57.1621 22.5825 57.0049C22.3481 56.769 22.1919 56.6117 22.0356 56.3759L22.7387 54.5674L22.6606 54.4102C22.5825 54.1743 22.4262 53.9384 22.3481 53.7025C22.27 53.4667 22.1919 53.2308 22.1138 52.9949L22.0356 52.6804L20.2389 51.8941V51.6582C20.2389 51.501 20.2389 51.2651 20.2389 51.0292C20.2389 50.7147 19.9264 50.4002 19.6139 50.4002C19.3015 50.4002 18.989 50.7147 18.989 51.0292C18.989 51.2651 18.989 51.501 18.989 51.7369C18.989 51.9727 19.0671 52.2086 19.0671 52.4445L19.1452 52.759L21.0201 53.6239C21.0982 53.7812 21.1763 54.017 21.2544 54.1743C21.3326 54.3316 21.4107 54.5674 21.4888 54.7247L20.7076 56.6118L20.942 56.9263C21.2544 57.3194 21.4888 57.6339 21.8794 57.9484C22.1919 58.2629 22.5825 58.5774 22.895 58.8919L23.1293 59.1278L25.0823 58.3416C25.2385 58.4202 25.4729 58.4988 25.6291 58.5774C25.7854 58.6561 26.0197 58.7347 26.176 58.8133L26.9572 60.7004L27.2697 60.779C27.504 60.779 27.7384 60.8576 27.9727 60.8576C28.2071 60.8576 28.4414 60.8576 28.6758 60.8576C28.9102 60.8576 29.1445 60.8576 29.3789 60.8576C29.6132 60.8576 29.8476 60.779 30.082 60.779L30.3944 60.7004L31.2538 58.8133C31.41 58.7347 31.6444 58.6561 31.8006 58.5774C31.9568 58.4988 32.1912 58.4202 32.3474 58.3416L34.2223 59.1278L34.5348 58.8919C34.9254 58.5774 35.2379 58.3416 35.5503 57.9484C35.8628 57.6339 36.1753 57.2408 36.4878 56.9263L36.7221 56.6904L35.9409 54.7247C36.0191 54.5674 36.0972 54.3316 36.1753 54.1743C36.2534 54.017 36.3315 53.7812 36.4096 53.6239L38.2845 52.8376L38.3626 52.5231C38.3626 52.2872 38.4408 52.0514 38.4408 51.8155C38.4408 51.5796 38.4408 51.3437 38.4408 51.1078C38.4408 50.7933 38.1283 50.4788 37.8158 50.4788C37.3471 50.4788 37.0346 50.7147 37.0346 51.0292ZM20.1608 44.6604C21.1763 41.2008 18.6765 41.4367 17.8953 39.8641C18.5984 41.5153 16.8016 43.2451 20.1608 44.6604ZM35.7066 45.5253C35.4722 45.8398 35.2379 46.1543 35.0816 46.3902C35.0035 46.5474 34.8473 46.7047 34.7691 46.7833C34.5348 46.6261 34.3785 46.5474 34.1442 46.3902C33.7536 46.2329 33.2849 46.0757 32.8161 45.997C32.5037 45.9184 32.1912 46.1543 32.1131 46.4688C32.035 46.7833 32.2693 47.0978 32.5818 47.1765C32.8943 47.2551 33.2849 47.3337 33.5973 47.491C33.7536 47.5696 33.8317 47.6482 33.9879 47.7269C32.8943 48.9849 31.6444 50.1643 30.2382 51.1865C29.6914 51.6582 29.0664 52.0514 28.4415 52.4445C28.2852 52.3659 28.129 52.2086 27.9727 52.13C27.6603 51.9727 27.3478 51.9727 27.1134 52.2872C26.9572 52.6018 26.9572 52.9163 27.2697 53.1521C26.6447 53.5453 25.9416 53.8598 25.2385 54.1743C24.9261 54.3316 24.7698 54.6461 24.9261 54.9606C25.0823 55.2751 25.3948 55.4323 25.7073 55.2751C26.6447 54.882 27.504 54.4102 28.3633 53.9384C28.6758 54.0957 28.9883 54.3316 29.3008 54.4888C30.0038 54.882 30.7069 55.2751 31.4881 55.5896C31.8006 55.7468 32.1912 55.5896 32.2693 55.2751C32.4255 54.9606 32.2693 54.5674 31.9568 54.4888C31.2538 54.1743 30.5507 53.8598 29.8476 53.4667C29.7695 53.388 29.6132 53.3094 29.5351 53.3094C30.0038 52.9949 30.4726 52.6804 30.9413 52.3659C32.3474 51.2651 33.6755 50.007 34.8473 48.6704C34.9254 48.749 35.0035 48.9063 35.1597 48.9849C35.3941 49.2994 35.5503 49.6139 35.6285 49.9284C35.7066 50.2429 36.0972 50.4002 36.4096 50.3216C36.7221 50.2429 36.8784 49.8498 36.8002 49.5353C36.644 49.1421 36.4096 48.6704 36.1753 48.3559C36.0191 48.12 35.8628 47.9627 35.7066 47.7269C35.8628 47.5696 35.9409 47.4123 36.0972 47.2551C36.3315 46.9406 36.5659 46.6261 36.8002 46.3116C36.9565 45.997 36.9565 45.6825 36.644 45.4467C36.3315 45.2108 35.9409 45.2108 35.7066 45.5253ZM27.1915 48.3559C28.6758 50.6361 26.8791 50.872 26.7228 52.13C25.7073 49.9284 27.0353 49.6139 27.1915 48.3559ZM21.9575 51.6582C24.3011 53.8598 24.9261 51.8155 26.4103 51.8941C24.1449 50.2429 23.4418 51.7368 21.9575 51.6582ZM19.9264 49.2994C22.0356 52.13 23.0512 50.0857 24.6136 50.4788C22.5044 48.1986 21.4888 49.6925 19.9264 49.2994ZM24.3011 45.368C24.223 46.7833 22.7387 47.2551 24.0668 49.6925C24.1449 48.2772 26.176 47.8841 24.3011 45.368ZM23.2074 43.3237C23.0512 44.8176 21.4107 45.2108 22.6606 47.8841C22.895 46.3902 25.0042 46.1543 23.2074 43.3237ZM18.364 47.0192C20.1608 50.0857 21.4107 48.12 22.9731 48.6704C21.0201 46.2329 19.8483 47.5696 18.364 47.0192ZM17.036 44.5031C18.364 47.8055 19.9264 46.0757 21.3326 46.7833C19.8483 44.11 18.4421 45.2894 17.036 44.5031ZM21.5669 41.4367C21.4888 43.0878 19.8483 43.6382 21.4107 46.3116C21.4107 44.6604 23.6762 44.2672 21.5669 41.4367ZM25.9416 46.7047C25.7854 48.12 24.223 48.5131 25.4729 51.0292C25.6291 49.5353 27.5821 49.378 25.9416 46.7047ZM26.176 42.6161V45.6825L29.6132 49.1421C29.8476 49.378 30.2382 49.378 30.4726 49.1421C30.7069 48.9063 30.7069 48.5131 30.4726 48.2772L27.4259 45.2108V39.5496L29.3789 37.5839V35.7755C29.6914 35.5396 29.9257 35.2251 29.9257 34.832C29.9257 34.2029 29.3789 33.6525 28.7539 33.6525C28.129 33.6525 27.5821 34.2029 27.5821 34.832C27.5821 35.2251 27.8165 35.6182 28.129 35.7755V37.1121L26.176 39.0778V40.8863L24.7698 39.471V35.7755C25.0823 35.5396 25.3167 35.2251 25.3167 34.832C25.3167 34.2029 24.7698 33.6525 24.1449 33.6525C23.5199 33.6525 22.9731 34.2029 22.9731 34.832C22.9731 35.2251 23.2074 35.6182 23.5199 35.7755V40.0214L26.176 42.6161ZM31.3319 34.4388C31.0975 34.4388 30.9413 34.5961 30.9413 34.832C30.9413 35.0678 31.0975 35.2251 31.3319 35.2251C31.5662 35.2251 31.7225 35.0678 31.7225 34.832C31.7225 34.5961 31.4881 34.4388 31.3319 34.4388ZM28.6758 34.4388C28.4414 34.4388 28.2852 34.5961 28.2852 34.832C28.2852 35.0678 28.4414 35.2251 28.6758 35.2251C28.9102 35.2251 29.0664 35.0678 29.0664 34.832C29.0664 34.5961 28.9102 34.4388 28.6758 34.4388ZM24.1449 34.4388C23.9105 34.4388 23.7543 34.5961 23.7543 34.832C23.7543 35.0678 23.9105 35.2251 24.1449 35.2251C24.3792 35.2251 24.5355 35.0678 24.5355 34.832C24.5355 34.5961 24.3792 34.4388 24.1449 34.4388Z" fill="white"/>
<path fill-rule="evenodd" clip-rule="evenodd" d="M28.5983 66.9108C39.8476 61.4855 46.1753 52.6006 44.4566 37.9759C40.4725 36.9537 38.1289 34.5949 37.8165 30.5849C35.0823 29.4055 31.9575 28.7765 28.5983 28.7765C25.2392 28.7765 22.1144 29.3269 19.3802 30.5849C18.9896 34.5163 16.646 36.9537 12.7401 37.9759C11.0214 52.6006 17.3491 61.4855 28.5983 66.9108ZM21.177 31.9216C23.5206 31.0567 26.0985 30.6635 28.6765 30.6635C31.1763 30.6635 33.7542 31.0567 36.1759 31.9216C36.879 35.6957 39.3007 38.1332 42.8161 39.3912C43.8317 51.2639 39.2226 59.4412 28.7546 64.7878C18.2866 59.4412 13.5994 51.2639 14.6931 39.3912C18.0522 38.1332 20.4739 35.6957 21.177 31.9216Z" fill="#6CAF60"/>
<path fill-rule="evenodd" clip-rule="evenodd" d="M69.3766 18.9481L68.7517 20.6779L67.8924 22.7222H67.4237L66.5643 20.6779L65.9394 18.9481H65.8613V24.6879H64.9238V16.3533H65.8613L66.8768 18.9481L67.658 20.9924L68.4392 18.8694L69.3766 16.3533H70.3141V24.6879H69.3766V18.9481ZM119.373 22.4863C119.373 23.1939 119.217 23.823 118.904 24.2161C118.592 24.6092 118.123 24.8451 117.42 24.8451C116.717 24.8451 116.248 24.6879 115.936 24.2947C115.623 23.9016 115.467 23.4298 115.467 22.8008V18.7122C115.467 18.3977 115.467 18.1618 115.545 17.8473C115.623 17.5328 115.702 17.2969 115.858 17.061C116.014 16.8251 116.17 16.6679 116.405 16.5106C116.639 16.3533 116.951 16.2747 117.342 16.2747C117.733 16.2747 118.123 16.3533 118.358 16.432C118.592 16.5106 118.826 16.7465 118.904 16.9037C119.061 17.1396 119.139 17.3755 119.139 17.6114C119.217 17.9259 119.217 18.1618 119.217 18.5549V22.4863H119.373ZM118.436 18.4763C118.436 18.319 118.436 18.1618 118.436 18.0045C118.436 17.8473 118.358 17.69 118.28 17.6114C118.201 17.4541 118.123 17.3755 117.967 17.2969C117.811 17.2182 117.655 17.1396 117.42 17.1396C117.186 17.1396 117.03 17.2182 116.873 17.2969C116.717 17.3755 116.639 17.5328 116.561 17.69C116.483 17.8473 116.483 18.0045 116.483 18.1618C116.483 18.319 116.483 18.4763 116.483 18.6335V22.6435C116.483 22.8008 116.483 22.8794 116.483 23.0367C116.483 23.1939 116.561 23.2726 116.639 23.4298C116.717 23.5084 116.795 23.6657 116.951 23.7443C117.108 23.823 117.264 23.823 117.42 23.823C117.655 23.823 117.811 23.7443 117.889 23.6657C118.045 23.5871 118.123 23.5084 118.201 23.3512C118.28 23.1939 118.358 23.1153 118.358 22.9581C118.358 22.8008 118.436 22.6435 118.436 22.4863V18.4763ZM114.061 20.3633C114.452 20.442 114.686 20.6779 114.842 21.071C114.998 21.3855 115.077 21.8573 115.077 22.329C115.077 23.1939 114.92 23.823 114.53 24.2161C114.139 24.6092 113.592 24.7665 112.889 24.7665H111.327V16.3533H113.045C113.749 16.3533 114.295 16.5106 114.53 16.9037C114.842 17.2969 114.998 17.8473 114.998 18.5549C114.998 19.0267 114.92 19.3412 114.842 19.5771C114.608 19.8916 114.374 20.1275 114.061 20.3633ZM114.061 22.1718C114.061 21.7 113.983 21.3855 113.827 21.1496C113.67 20.9137 113.358 20.7565 112.811 20.7565H112.108V23.9016H112.811C113.045 23.9016 113.28 23.823 113.436 23.7443C113.592 23.6657 113.67 23.5084 113.827 23.3512C113.905 23.1939 113.983 23.0367 113.983 22.8008C114.061 22.6435 114.061 22.4077 114.061 22.1718ZM113.983 18.5549C113.983 18.1618 113.905 17.7686 113.67 17.5328C113.514 17.2969 113.202 17.2182 112.733 17.2182H112.108V19.8916H112.733C113.202 19.8916 113.514 19.813 113.67 19.5771C113.905 19.3412 113.983 19.0267 113.983 18.5549ZM109.218 17.2182V24.6879H108.28V17.2182H106.874V16.3533H110.624V17.2182H109.218ZM104.765 16.2747C105.39 16.2747 105.858 16.432 106.171 16.8251C106.483 17.1396 106.64 17.6114 106.64 18.2404L105.702 18.3977C105.702 18.0045 105.624 17.7686 105.468 17.5328C105.312 17.2969 105.077 17.2182 104.765 17.2182C104.609 17.2182 104.452 17.2969 104.296 17.3755C104.14 17.4541 104.062 17.6114 103.984 17.69C103.906 17.8473 103.905 18.0045 103.827 18.1618C103.827 18.319 103.827 18.4763 103.827 18.6335V22.8008C103.827 22.958 103.827 23.0367 103.827 23.1939C103.827 23.3512 103.906 23.4298 103.984 23.5871C104.062 23.6657 104.14 23.823 104.296 23.9016C104.374 23.9802 104.53 24.0588 104.765 24.0588C105.077 24.0588 105.312 23.9802 105.468 23.7443C105.624 23.5871 105.702 23.2726 105.702 22.8008L106.64 22.9581C106.64 23.5871 106.483 24.0588 106.171 24.3733C105.858 24.6879 105.39 24.8451 104.765 24.8451C104.14 24.8451 103.671 24.6879 103.359 24.2947C103.046 23.9802 102.89 23.4298 102.89 22.8008V18.7122C102.89 18.3977 102.89 18.1618 102.968 17.8473C103.046 17.5328 103.124 17.2969 103.281 17.061C103.437 16.8251 103.593 16.6679 103.827 16.5106C104.062 16.3533 104.374 16.2747 104.765 16.2747ZM100.312 16.3533C100.703 16.3533 101.093 16.432 101.328 16.5106C101.562 16.5892 101.796 16.7465 101.953 16.9824C102.109 17.2182 102.187 17.4541 102.265 17.7686C102.343 18.0831 102.343 18.4763 102.343 18.8694C102.343 19.1839 102.343 19.5771 102.265 19.813C102.187 20.1275 102.109 20.3633 101.953 20.5992C101.796 20.8351 101.562 20.9924 101.328 21.1496C101.015 21.3069 100.703 21.3069 100.234 21.3069H99.5308V24.6879H98.5934V16.3533H100.312ZM99.5308 20.5206H100.156C100.468 20.5206 100.703 20.442 100.859 20.3633C101.015 20.2847 101.171 20.1275 101.249 20.0488C101.328 19.8916 101.406 19.7343 101.406 19.5771C101.406 19.4198 101.406 19.1839 101.406 18.9481C101.406 18.7122 101.406 18.4763 101.328 18.319C101.328 18.0831 101.249 17.9259 101.171 17.7686C101.093 17.6114 100.937 17.5328 100.781 17.4541C100.624 17.3755 100.39 17.2969 100.078 17.2969H99.3746V20.5206H99.5308ZM94.2968 24.6879V16.3533H97.8122V17.2182H95.2342V19.9702H97.4997V20.8351H95.2342V23.7443H97.8122V24.6092H94.2968V24.6879ZM92.2657 17.2182V24.6879H91.3283V17.2182H89.9221V16.3533H93.6718V17.2182H92.2657ZM87.891 16.2747C88.5159 16.2747 88.9847 16.432 89.2971 16.8251C89.6096 17.1396 89.7659 17.6114 89.7659 18.2404L88.8284 18.3977C88.8284 18.0045 88.7503 17.7686 88.5941 17.5328C88.4378 17.2969 88.2035 17.2182 87.891 17.2182C87.7347 17.2182 87.5785 17.2969 87.4223 17.3755C87.266 17.4541 87.1879 17.6114 87.1098 17.69C87.0317 17.8473 87.0317 18.0045 86.9536 18.1618C86.9536 18.319 86.9536 18.4763 86.9536 18.6335V22.8008C86.9536 22.958 86.9536 23.0367 86.9536 23.1939C86.9536 23.3512 87.0317 23.4298 87.1098 23.5871C87.1879 23.6657 87.266 23.823 87.4223 23.9016C87.5004 23.9802 87.6566 24.0588 87.891 24.0588C88.2035 24.0588 88.4378 23.9802 88.5941 23.7443C88.7503 23.5871 88.8284 23.2726 88.8284 22.8008L89.7659 22.9581C89.7659 23.5871 89.6096 24.0588 89.2971 24.3733C88.9847 24.6879 88.5159 24.8451 87.891 24.8451C87.266 24.8451 86.7973 24.6879 86.4848 24.2947C86.1724 23.9802 86.0161 23.4298 86.0161 22.8008V18.7122C86.0161 18.3977 86.0161 18.1618 86.0942 17.8473C86.1724 17.5328 86.2505 17.2969 86.4067 17.061C86.563 16.8251 86.7192 16.6679 86.9536 16.5106C87.1879 16.3533 87.5004 16.2747 87.891 16.2747ZM84.1412 18.8694L82.032 24.6879H81.1727V16.3533H82.1101V22.2504H82.1883L84.2194 16.3533H85.0787V24.6879H84.1412V18.8694ZM79.2197 24.6879V20.8351H77.2667V24.6879H76.3293V16.3533H77.2667V20.0488H79.2197V16.3533H80.1571V24.6879H79.2197ZM74.3763 18.8694L72.2671 24.6879H71.4078V16.3533H72.3452V22.2504H72.4233L74.4544 16.3533H75.3137V24.6879H74.3763V18.8694Z" fill="white"/>
<path fill-rule="evenodd" clip-rule="evenodd" d="M66.4866 36.482C66.4866 36.8751 66.5647 37.1896 66.721 37.3469C66.8772 37.5041 67.1115 37.5827 67.3459 37.5827C67.5803 37.5827 67.8146 37.4255 67.9709 37.1896C68.1271 36.9537 68.2052 36.5606 68.2052 36.0102C68.2052 34.988 67.8927 34.5163 67.3459 34.5163H66.7991V33.2582H67.424C67.7365 33.2582 67.8927 33.101 68.049 32.8651C68.2052 32.6292 68.2833 32.2361 68.2833 31.7643C68.2833 31.3712 68.2052 31.0567 68.049 30.8994C67.8927 30.6635 67.6584 30.5849 67.424 30.5849C67.1116 30.5849 66.8772 30.6635 66.7991 30.8994C66.4866 31.2139 66.4085 31.4498 66.4085 31.8429L65.0023 31.5284C65.0804 30.8208 65.3148 30.2704 65.7054 29.7986C66.096 29.4055 66.6428 29.1696 67.3459 29.1696C68.9083 29.1696 69.6895 30.0345 69.6895 31.7643C69.6895 31.9216 69.6895 32.0788 69.6895 32.3147C69.6895 32.5506 69.6114 32.7078 69.5333 32.9437C69.4551 33.1796 69.377 33.3369 69.2989 33.4941C69.2208 33.6514 69.0645 33.8086 68.9083 33.8872V33.9659C69.0645 34.0445 69.2208 34.2018 69.2989 34.359C69.377 34.5163 69.5333 34.6735 69.5333 34.9094C69.6114 35.0667 69.6114 35.3025 69.6895 35.5384C69.6895 35.7743 69.7676 36.0102 69.7676 36.2461C69.7676 37.2682 69.5333 37.9759 69.1427 38.4476C68.7521 38.9194 68.1271 39.1553 67.3459 39.1553C66.6428 39.1553 66.096 38.9194 65.6273 38.5263C65.2367 38.1331 65.0023 37.5827 65.0023 36.7965L66.4866 36.482ZM224.523 32.9437L222.491 38.998H221.085V29.2482H222.57V35.3812H222.648L224.679 29.2482H226.163V38.998H224.679L224.523 32.9437ZM222.726 27.0467C222.726 27.1253 222.804 27.2825 222.804 27.3612C222.882 27.4398 222.882 27.5971 222.96 27.6757C223.038 27.7543 223.116 27.8329 223.195 27.9116C223.273 27.9902 223.429 27.9902 223.507 27.9902C223.663 27.9902 223.741 27.9902 223.898 27.9116C223.976 27.8329 224.132 27.7543 224.132 27.6757C224.21 27.5971 224.288 27.5184 224.288 27.3612C224.366 27.2825 224.366 27.1253 224.366 27.0467H225.46C225.46 27.2039 225.382 27.4398 225.304 27.6757C225.226 27.9116 225.069 28.1474 224.913 28.3047C224.757 28.462 224.523 28.6192 224.288 28.7765C224.054 28.9337 223.741 28.9337 223.429 28.9337C223.038 28.9337 222.726 28.8551 222.491 28.7765C222.257 28.6192 222.023 28.462 221.866 28.3047C221.71 28.1474 221.632 27.9116 221.554 27.6757C221.476 27.4398 221.476 27.2039 221.398 27.0467H222.726ZM218.507 32.9437L216.476 38.998H215.07V29.2482H216.554V35.3812H216.632L218.664 29.2482H220.148V38.998H218.664L218.507 32.9437ZM212.57 38.998V34.7521H210.852V38.998H209.367V29.2482H210.852V33.3369H212.57V29.2482H214.055V38.998H212.57ZM204.211 38.998V29.2482H208.508V30.6635H205.696V33.3369H208.117V34.7521H205.696V37.5827H208.508V38.998H204.211ZM203.118 29.2482V38.998H195.775V29.2482H197.259V37.5827H198.665V29.2482H200.149V37.5827H201.555V29.2482H203.118ZM193.353 31.6857C193.353 31.4498 193.275 31.1353 193.197 30.978C193.118 30.7422 192.884 30.6635 192.572 30.6635C192.415 30.6635 192.259 30.7421 192.103 30.8208C192.025 30.8994 191.869 30.978 191.869 31.1353C191.79 31.2139 191.79 31.3712 191.712 31.5284C191.712 31.6857 191.712 31.8429 191.712 31.9216V36.7965C191.712 37.0323 191.79 37.2682 191.869 37.5041C192.025 37.74 192.181 37.8186 192.493 37.8186C192.806 37.8186 193.04 37.74 193.118 37.5041C193.275 37.2682 193.275 37.0323 193.275 36.7178V31.6857H193.353ZM194.915 36.482C194.915 37.3469 194.759 37.9759 194.368 38.369C193.978 38.8408 193.431 38.998 192.572 38.998C191.712 38.998 191.165 38.7621 190.775 38.369C190.384 37.9759 190.228 37.3469 190.228 36.5606V31.6857C190.228 31.2925 190.306 30.978 190.384 30.6635C190.462 30.349 190.619 30.1131 190.775 29.8772C190.931 29.6414 191.165 29.4841 191.478 29.3269C191.79 29.1696 192.103 29.1696 192.572 29.1696C193.04 29.1696 193.353 29.2482 193.665 29.3269C193.978 29.4055 194.212 29.6414 194.368 29.7986C194.525 30.0345 194.681 30.2704 194.759 30.5849C194.837 30.8994 194.915 31.2925 194.915 31.6857V36.482ZM187.806 38.998V34.7521H186.088V38.998H184.603V29.2482H186.088V33.3369H187.806V29.2482H189.291V38.998H187.806ZM182.416 30.6635V38.998H180.932V30.6635H179.369V29.2482H183.978V30.6635H182.416ZM177.573 31.6857C177.573 31.4498 177.495 31.1353 177.416 30.978C177.338 30.7422 177.104 30.6635 176.791 30.6635C176.635 30.6635 176.479 30.7421 176.323 30.8208C176.245 30.8994 176.088 30.978 176.088 31.1353C176.01 31.2139 176.01 31.3712 175.932 31.5284C175.932 31.6857 175.932 31.8429 175.932 31.9216V36.7965C175.932 37.0323 176.01 37.2682 176.088 37.5041C176.245 37.74 176.401 37.8186 176.713 37.8186C177.026 37.8186 177.26 37.74 177.338 37.5041C177.495 37.2682 177.495 37.0323 177.495 36.7178V31.6857H177.573ZM179.057 36.482C179.057 37.3469 178.901 37.9759 178.51 38.369C178.119 38.8408 177.573 38.998 176.713 38.998C175.932 38.998 175.307 38.7621 174.917 38.369C174.526 37.9759 174.37 37.3469 174.37 36.5606V31.6857C174.37 31.2925 174.448 30.978 174.526 30.6635C174.604 30.349 174.76 30.1131 174.917 29.8772C175.073 29.6414 175.307 29.4841 175.62 29.3269C175.932 29.1696 176.245 29.1696 176.713 29.1696C177.182 29.1696 177.495 29.2482 177.807 29.3269C178.119 29.4055 178.354 29.6414 178.51 29.7986C178.666 30.0345 178.823 30.2704 178.901 30.5849C178.979 30.8994 179.057 31.2925 179.057 31.6857V36.482ZM169.526 38.998L168.433 35.6957L167.339 38.998H165.698L167.651 33.8872C167.339 33.101 167.027 32.3147 166.714 31.6071C166.402 30.8208 166.089 30.0345 165.777 29.2482H167.417C167.573 29.72 167.73 30.1918 167.886 30.7421C168.042 31.2139 168.198 31.6857 168.355 32.2361H168.433L169.37 29.3269H171.089L169.214 33.9659C169.526 34.8308 169.917 35.6957 170.229 36.482C170.542 37.3469 170.932 38.1331 171.245 38.998H169.526ZM158.043 38.998V29.2482H159.527V33.0223H160.152C160.621 33.0223 161.089 33.101 161.402 33.2582C161.714 33.4155 162.027 33.5727 162.183 33.8086C162.417 34.0445 162.496 34.359 162.574 34.7521C162.652 35.1453 162.73 35.5384 162.73 36.0102C162.73 37.0323 162.496 37.8186 162.105 38.2904C161.714 38.7621 161.011 39.0767 160.152 39.0767H158.043V38.998ZM159.527 37.5827H160.074C160.543 37.5827 160.855 37.4255 161.011 37.111C161.168 36.7965 161.246 36.4033 161.246 35.9316C161.246 35.3812 161.168 34.988 161.011 34.7521C160.855 34.5163 160.543 34.359 160.074 34.359H159.527V37.5827ZM163.511 38.998V29.2482H164.995V38.998H163.511ZM155.777 31.9216C155.777 31.4498 155.699 31.1353 155.543 30.978C155.387 30.8208 155.074 30.6635 154.684 30.6635H154.215V33.1796H154.684C155.074 33.1796 155.387 33.101 155.543 32.8651C155.699 32.6292 155.777 32.3147 155.777 31.9216ZM155.855 35.9316C155.855 35.4598 155.777 35.1453 155.621 34.9094C155.465 34.6735 155.152 34.5949 154.762 34.5949H154.215V37.5827H154.84C155.074 37.5827 155.309 37.5041 155.387 37.4255C155.543 37.3469 155.621 37.1896 155.699 37.0323C155.777 36.8751 155.855 36.7178 155.855 36.482C155.855 36.3247 155.855 36.1674 155.855 35.9316ZM156.168 33.8872C156.558 34.0445 156.871 34.2804 157.027 34.6735C157.183 35.0667 157.262 35.5384 157.262 36.0102C157.262 37.0323 157.027 37.74 156.637 38.2118C156.168 38.6835 155.543 38.9194 154.684 38.9194H152.653V29.2482H154.762C155.621 29.2482 156.246 29.4841 156.637 29.9559C157.027 30.4276 157.183 31.0567 157.183 31.9216C157.183 32.3933 157.105 32.7865 156.949 33.101C156.793 33.4155 156.558 33.6514 156.168 33.8872ZM150.309 31.6857C150.309 31.4498 150.231 31.1353 150.153 30.978C150.075 30.7422 149.84 30.6635 149.528 30.6635C149.371 30.6635 149.215 30.7421 149.059 30.8208C148.981 30.8994 148.825 30.978 148.825 31.1353C148.747 31.2139 148.747 31.3712 148.668 31.5284C148.668 31.6857 148.668 31.8429 148.668 31.9216V36.7965C148.668 37.0323 148.747 37.2682 148.825 37.5041C148.981 37.74 149.137 37.8186 149.45 37.8186C149.762 37.8186 149.996 37.74 150.075 37.5041C150.231 37.2682 150.231 37.0323 150.231 36.7178V31.6857H150.309ZM151.793 36.482C151.793 37.3469 151.637 37.9759 151.246 38.369C150.856 38.8408 150.309 38.998 149.45 38.998C148.668 38.998 148.043 38.7621 147.653 38.369C147.262 37.9759 147.106 37.3469 147.106 36.5606V31.6857C147.106 31.2925 147.184 30.978 147.262 30.6635C147.34 30.349 147.497 30.1131 147.653 29.8772C147.809 29.6414 148.043 29.4841 148.356 29.3269C148.668 29.1696 148.981 29.1696 149.45 29.1696C149.918 29.1696 150.231 29.2482 150.543 29.3269C150.856 29.4055 151.09 29.6414 151.246 29.7986C151.403 30.0345 151.559 30.2704 151.637 30.5849C151.715 30.8994 151.793 31.2925 151.793 31.6857V36.482ZM141.481 38.998V40.8065H140.231V37.74L140.778 37.5827C141.013 37.2682 141.247 36.9537 141.325 36.6392C141.403 36.2461 141.481 35.7743 141.481 35.1453L141.638 29.2482H145.934V37.5827H146.559V40.8065H145.309V38.998H141.481ZM142.809 35.1453C142.809 35.6957 142.731 36.1674 142.731 36.5606C142.653 36.9537 142.575 37.2682 142.419 37.5827H144.528V30.6635H142.966L142.809 35.1453ZM138.2 34.2804L136.95 29.2482H135.466L137.497 36.482V36.5606C137.497 36.6392 137.497 36.6392 137.419 36.7178C137.419 36.7965 137.419 36.7965 137.419 36.8751C137.419 36.9537 137.419 36.9537 137.419 36.9537C137.341 37.2682 137.185 37.5041 137.029 37.6614C136.872 37.8186 136.716 37.8972 136.482 37.8972H136.169V39.0767H136.716C136.95 39.0767 137.185 39.0767 137.341 38.998C137.575 38.9194 137.732 38.8408 137.888 38.6835C138.044 38.5263 138.278 38.2904 138.435 37.9759C138.591 37.6614 138.747 37.2682 138.903 36.7178L140.856 29.1696H139.45L138.2 34.2804ZM132.966 29.2482C133.826 29.2482 134.529 29.4841 134.919 29.9559C135.31 30.4276 135.544 31.1353 135.544 32.2361C135.544 32.7078 135.466 33.101 135.388 33.4941C135.31 33.8872 135.154 34.2018 134.919 34.4376C134.685 34.6735 134.451 34.9094 134.138 35.0667C133.826 35.2239 133.357 35.3025 132.888 35.3025H132.263V38.998H130.779V29.2482H132.966ZM132.263 30.6635V33.8086H132.81C133.279 33.8086 133.591 33.6514 133.748 33.4155C133.904 33.1796 133.982 32.7865 133.982 32.2361C133.982 31.7643 133.904 31.3712 133.748 31.1353C133.591 30.8208 133.279 30.7421 132.81 30.7421H132.263V30.6635ZM128.592 30.6635V38.998H127.107V30.6635H125.545V29.2482H130.154V30.6635H128.592ZM120.389 32.9437L118.358 38.998H116.952V29.2482H118.436V35.3812H118.514L120.545 29.2482H122.03V38.998H120.545L120.389 32.9437ZM111.405 32.9437L109.374 38.998H107.968V29.2482H109.452V35.3812H109.53L111.562 29.2482H113.046V38.998H111.562L111.405 32.9437ZM105.703 30.6635V38.998H104.218V30.6635H102.656V29.2482H107.265V30.6635H105.703ZM99.8437 29.1696C100.234 29.1696 100.547 29.2482 100.859 29.3269C101.172 29.4055 101.406 29.5627 101.562 29.7986C101.719 30.0345 101.875 30.2704 101.953 30.5063C102.031 30.7421 102.109 31.0567 102.109 31.3712L100.625 31.7643C100.625 31.4498 100.547 31.1353 100.39 30.8994C100.234 30.6635 100.078 30.5849 99.7655 30.5849C99.6093 30.5849 99.4531 30.5849 99.3749 30.6635C99.2968 30.7421 99.1406 30.8208 99.1406 30.978C99.0625 31.0567 99.0625 31.2139 98.9843 31.3712C98.9843 31.5284 98.9843 31.6071 98.9843 31.7643V36.7178C98.9843 36.7965 98.9843 36.8751 98.9843 37.0323C98.9843 37.111 99.0625 37.2682 99.0625 37.3469C99.1406 37.4255 99.2187 37.5041 99.2968 37.5827C99.3749 37.6614 99.5312 37.6614 99.6874 37.6614C100.234 37.6614 100.547 37.2682 100.547 36.482C100.781 36.5606 101.015 36.5606 101.328 36.6392C101.562 36.6392 101.797 36.7178 102.109 36.7178C102.109 37.4255 101.875 38.0545 101.484 38.4476C101.094 38.8408 100.547 39.0767 99.7655 39.0767C98.9843 39.0767 98.3594 38.8408 97.9688 38.4476C97.5782 38.0545 97.422 37.4255 97.422 36.6392V31.7643C97.422 31.3712 97.5001 31.0567 97.5782 30.7421C97.6563 30.4276 97.8126 30.1131 97.9688 29.8772C98.125 29.6414 98.3594 29.4055 98.6719 29.3269C99.0625 29.2482 99.4531 29.1696 99.8437 29.1696ZM95.2346 31.6857C95.2346 31.4498 95.1565 31.1353 95.0784 30.978C95.0002 30.7422 94.7659 30.6635 94.4534 30.6635C94.2972 30.6635 94.1409 30.7421 93.9847 30.8208C93.9066 30.8994 93.7503 30.978 93.7503 31.1353C93.6722 31.2139 93.6722 31.3712 93.5941 31.5284C93.5941 31.6857 93.5941 31.8429 93.5941 31.9216V36.7965C93.5941 37.0323 93.6722 37.2682 93.7503 37.5041C93.9066 37.74 94.0628 37.8186 94.3753 37.8186C94.6878 37.8186 94.9221 37.74 95.0002 37.5041C95.1565 37.2682 95.1565 37.0323 95.1565 36.7178V31.6857H95.2346ZM96.797 36.482C96.797 37.3469 96.6408 37.9759 96.2502 38.369C95.8596 38.8408 95.3127 38.998 94.4534 38.998C93.6722 38.998 93.0473 38.7621 92.6567 38.369C92.2661 37.9759 92.1098 37.3469 92.1098 36.5606V31.6857C92.1098 31.2925 92.1879 30.978 92.2661 30.6635C92.3442 30.349 92.5004 30.1131 92.6567 29.8772C92.8129 29.6414 93.0473 29.4841 93.3597 29.3269C93.6722 29.1696 93.9847 29.1696 94.4534 29.1696C94.9221 29.1696 95.2346 29.2482 95.5471 29.3269C95.8596 29.4055 96.0939 29.6414 96.2502 29.7986C96.4064 30.0345 96.5626 30.2704 96.6408 30.5849C96.7189 30.8994 96.797 31.2925 96.797 31.6857V36.482ZM90.1568 30.6635V38.998H88.6726V30.6635H87.1102V29.2482H91.7192V30.6635H90.1568ZM81.2512 38.998L81.798 35.9316C81.8762 35.6171 81.9543 35.3025 82.1105 35.0667C82.2668 34.8308 82.423 34.5949 82.6574 34.4376C82.1886 34.2804 81.8762 33.9659 81.7199 33.5727C81.5637 33.1796 81.4856 32.7078 81.4856 32.2361C81.4856 31.2925 81.7199 30.5849 82.1886 30.0345C82.6573 29.5627 83.2823 29.3269 84.0635 29.3269H86.2509V39.0767H84.7666V34.9094H84.376C84.1416 34.9094 83.9073 34.988 83.6729 35.2239C83.4385 35.4598 83.2823 35.7743 83.2042 36.3247L82.7355 39.0767H81.2512V38.998ZM84.2197 30.6635C83.751 30.6635 83.4385 30.8208 83.2823 31.0567C83.1261 31.2925 83.048 31.6857 83.048 32.1574C83.048 32.6292 83.1261 32.9437 83.3604 33.1796C83.5948 33.3369 83.9073 33.4155 84.2197 33.4155H84.8447V30.6635H84.2197ZM78.9076 38.998V34.7521H77.189V38.998H75.7047V29.2482H77.189V33.3369H78.9076V29.2482H80.3919V38.998H78.9076ZM73.7517 38.998L73.3611 36.9537H71.5644C71.4862 37.2682 71.4081 37.6614 71.4081 37.9759C71.33 38.2904 71.2519 38.6835 71.2519 38.998H69.6895C70.002 37.3469 70.3145 35.7743 70.6269 34.1231C70.9394 32.5506 71.2519 30.8994 71.5644 29.2482H73.2049L75.1579 38.998H73.7517ZM72.4237 31.5284C72.3456 32.2361 72.2674 32.8651 72.1112 33.4941C72.0331 34.1231 71.8768 34.8308 71.7987 35.5384H73.1268L72.4237 31.5284Z" fill="white"/>
<path fill-rule="evenodd" clip-rule="evenodd" d="M66.6425 43.7943C67.0331 43.7943 67.4237 43.8729 67.658 43.9516C67.8924 44.0302 68.1267 44.2661 68.283 44.4233C68.4392 44.6592 68.5173 44.8951 68.5955 45.2096C68.7517 45.6027 68.7517 45.9173 68.7517 46.3104C68.7517 46.7035 68.7517 47.018 68.6736 47.3325C68.5955 47.6471 68.5173 47.8829 68.3611 48.1188C68.2049 48.3547 67.9705 48.512 67.658 48.6692C67.3455 48.8265 67.0331 48.8265 66.5643 48.8265H65.8613V52.2074H64.9238V43.7943H66.6425ZM159.058 52.2074V48.3547H157.105V52.2074H156.168V43.7943H157.105V47.4898H159.058V43.7943H159.995V52.2074H159.058ZM154.527 52.2074L154.136 50.3204H152.34L151.949 52.2074H151.012L152.808 43.7943H153.668L155.464 52.2074H154.527ZM153.199 45.5241L152.886 47.4898L152.496 49.4555H154.058L153.668 47.4898L153.199 45.5241ZM149.762 44.7378H151.168V43.8729H147.418V44.7378H148.824V52.2861H149.762V44.7378ZM145.231 43.7943C145.856 43.7943 146.324 43.9516 146.637 44.3447C146.949 44.7378 147.106 45.131 147.106 45.76L146.168 45.9173C146.168 45.5241 146.09 45.2882 145.934 45.0523C145.778 44.8165 145.543 44.7378 145.231 44.7378C145.075 44.7378 144.918 44.8165 144.762 44.8951C144.606 44.9737 144.528 45.131 144.45 45.2096C144.371 45.3669 144.371 45.5241 144.293 45.6814C144.293 45.8386 144.293 45.9959 144.293 46.1531V50.399C144.293 50.5563 144.293 50.6349 144.293 50.7922C144.293 50.9494 144.371 51.028 144.45 51.1853C144.528 51.2639 144.606 51.4212 144.762 51.4998C144.84 51.5784 144.996 51.6571 145.231 51.6571C145.543 51.6571 145.778 51.5784 145.934 51.3425C146.09 51.1853 146.168 50.8708 146.168 50.399L147.106 50.5563C147.106 51.1853 146.949 51.6571 146.637 51.9716C146.324 52.2861 145.856 52.4433 145.231 52.4433C144.606 52.4433 144.137 52.2861 143.825 51.8929C143.512 51.4998 143.356 51.028 143.356 50.399V46.2318C143.356 45.9173 143.356 45.6814 143.434 45.3669C143.512 45.0524 143.59 44.8165 143.746 44.5806C143.903 44.3447 144.059 44.1874 144.293 44.0302C144.528 43.7943 144.84 43.7943 145.231 43.7943ZM141.403 46.3104L139.294 52.2074H138.434V43.7943H139.372V49.77H139.45L141.559 43.7943H142.497V52.2074H141.403V46.3104ZM133.122 52.2074V43.7943H134.06V47.4898H134.528C134.685 47.4898 134.763 47.4898 134.919 47.4898C135.075 47.4898 135.153 47.4112 135.31 47.3325C135.466 47.2539 135.544 47.0967 135.622 46.9394C135.7 46.7822 135.778 46.5463 135.856 46.3104L136.403 43.8729H137.263L136.716 46.3104C136.638 46.7035 136.481 47.0967 136.325 47.3325C136.169 47.6471 135.935 47.8043 135.7 47.8829C136.013 47.9616 136.247 48.1974 136.403 48.512C136.559 48.8265 136.716 49.141 136.794 49.5341L137.419 52.2074H136.481L135.935 49.6914C135.856 49.3769 135.778 49.2196 135.7 48.9837C135.622 48.8265 135.466 48.6692 135.388 48.5906C135.231 48.512 135.153 48.4333 134.997 48.4333C134.841 48.4333 134.685 48.3547 134.607 48.3547H134.138V52.2074H133.122ZM128.669 52.2074V43.7943H132.263V44.6592H129.607V47.4898H131.872V48.3547H129.607V51.2639H132.263V52.1288H128.669V52.2074ZM124.998 51.3425H125.701C126.013 51.3425 126.17 51.2639 126.404 51.1853C126.56 51.1067 126.716 50.9494 126.795 50.8708C126.873 50.7135 126.951 50.5563 126.951 50.3204C126.951 50.0845 127.029 49.9273 127.029 49.6914C127.029 49.4555 127.029 49.2982 127.029 49.0623C127.029 48.9051 126.951 48.6692 126.873 48.5906C126.795 48.4333 126.638 48.3547 126.482 48.2761C126.326 48.1974 126.091 48.1188 125.779 48.1188H124.998V51.3425ZM124.998 47.2539H125.701C126.17 47.2539 126.56 47.3325 126.795 47.4112C127.107 47.5684 127.263 47.7257 127.498 47.8829C127.654 48.1188 127.732 48.3547 127.81 48.6692C127.888 48.9837 127.888 49.2982 127.888 49.6127C127.888 50.0059 127.888 50.399 127.81 50.7135C127.732 51.028 127.654 51.2639 127.498 51.4998C127.341 51.7357 127.107 51.8929 126.873 52.0502C126.638 52.2074 126.248 52.2074 125.857 52.2074H124.138V43.7943H127.498V44.6592H124.998V47.2539ZM121.248 43.7943C121.561 43.7943 121.795 43.7943 122.029 43.8729C122.264 43.9516 122.498 44.0302 122.654 44.1874C122.81 44.3447 122.967 44.5806 123.045 44.8165C123.123 45.131 123.201 45.4455 123.201 45.8386C123.201 45.9959 123.201 46.1531 123.201 46.3104C123.201 46.4676 123.123 46.7035 123.123 46.8608C123.045 47.018 122.967 47.2539 122.889 47.3325C122.81 47.4898 122.654 47.5684 122.498 47.6471C122.654 47.7257 122.81 47.8829 122.889 48.0402C122.967 48.1974 123.045 48.3547 123.123 48.512C123.201 48.6692 123.201 48.9051 123.201 49.0623C123.201 49.2196 123.201 49.4555 123.201 49.6127C123.201 50.399 123.045 51.028 122.732 51.4212C122.42 51.8143 121.951 52.0502 121.248 52.0502C120.936 52.0502 120.701 52.0502 120.467 51.9716C120.232 51.8929 119.998 51.8143 119.842 51.6571C119.686 51.4998 119.529 51.2639 119.451 51.028C119.373 50.7922 119.295 50.4776 119.373 50.1631L120.311 50.0059C120.311 50.4776 120.389 50.7922 120.545 50.9494C120.701 51.1067 120.936 51.1853 121.248 51.1853C121.404 51.1853 121.482 51.1853 121.639 51.1067C121.717 51.028 121.873 50.9494 121.951 50.8708C122.029 50.7135 122.107 50.5563 122.185 50.399C122.264 50.1631 122.264 49.9272 122.264 49.6127C122.264 49.3769 122.264 49.2196 122.185 49.0623C122.185 48.9051 122.107 48.7478 122.029 48.5906C121.951 48.4333 121.873 48.3547 121.717 48.2761C121.639 48.1974 121.482 48.1188 121.248 48.1188H120.701V47.2539H121.248C121.404 47.2539 121.561 47.2539 121.639 47.1753C121.717 47.0967 121.873 47.018 121.951 46.8608C122.029 46.7035 122.107 46.5463 122.107 46.389C122.107 46.2318 122.185 45.9959 122.185 45.76C122.185 45.5241 122.185 45.2882 122.107 45.131C122.029 44.9737 121.951 44.8165 121.873 44.7378C121.795 44.6592 121.639 44.5806 121.561 44.502C121.404 44.4233 121.326 44.4233 121.17 44.4233C120.857 44.4233 120.623 44.5806 120.467 44.8165C120.311 45.0523 120.232 45.3669 120.232 45.6814L119.295 45.4455C119.295 44.8165 119.529 44.3447 119.842 44.0302C120.311 43.9516 120.701 43.7943 121.248 43.7943ZM117.342 48.512L118.436 43.7943H119.373L117.655 50.2418C117.498 50.7135 117.42 51.1067 117.264 51.3425C117.108 51.5784 116.951 51.8143 116.873 51.9716C116.717 52.1288 116.561 52.2074 116.405 52.2074C116.248 52.2074 116.092 52.2861 115.936 52.2861H115.467V51.5784H115.936C116.092 51.5784 116.248 51.4998 116.405 51.3425C116.561 51.1853 116.639 50.8708 116.795 50.5563L116.951 50.0845L115.155 43.9516H116.092L117.342 48.512ZM110.233 46.3104L108.124 52.2074H107.265V43.7943H108.202V49.77H108.28L110.389 43.7943H111.327V52.2074H110.389L110.233 46.3104ZM102.265 52.2074V43.7943H103.202V47.4898H103.671C103.827 47.4898 103.906 47.4898 104.062 47.4898C104.218 47.4898 104.296 47.4112 104.452 47.3325C104.609 47.2539 104.687 47.0967 104.765 46.9394C104.843 46.7822 104.921 46.5463 104.999 46.3104L105.546 43.8729H106.405L105.858 46.3104C105.78 46.7035 105.624 47.0967 105.468 47.3325C105.312 47.6471 105.077 47.8043 104.843 47.8829C105.155 47.9616 105.39 48.1974 105.546 48.512C105.702 48.8265 105.858 49.141 105.937 49.5341L106.562 52.2074H105.624L105.077 49.6914C104.999 49.3769 104.921 49.2196 104.843 48.9837C104.765 48.8265 104.609 48.6692 104.53 48.5906C104.374 48.512 104.296 48.4333 104.14 48.4333C103.984 48.4333 103.827 48.3547 103.749 48.3547H103.281V52.2074H102.265ZM100.156 46.3104L98.0465 52.2074H97.1872V43.7943H98.1247V49.77H98.2028L100.312 43.7943H101.249V52.2074H100.312L100.156 46.3104ZM93.2031 48.0402C93.2031 48.8265 93.2031 49.4555 93.125 49.9272C93.0469 50.399 92.9688 50.8708 92.8906 51.1853C92.7344 51.4998 92.5782 51.7357 92.4219 51.9716C92.1876 52.1288 91.9532 52.3647 91.6407 52.522L91.172 51.8143C91.3282 51.6571 91.4845 51.5784 91.6407 51.4212C91.797 51.2639 91.8751 51.1067 92.0313 50.8708C92.1094 50.6349 92.1876 50.399 92.2657 50.0845C92.3438 49.77 92.3438 49.2982 92.3438 48.7478V43.7943H95.8592V52.2074H94.9218V44.6592H93.2812V48.0402H93.2031ZM88.2816 51.3425H88.9847C89.2971 51.3425 89.4534 51.2639 89.6877 51.1853C89.844 51.1067 90.0002 50.9494 90.0783 50.8708C90.1565 50.7135 90.2346 50.5563 90.2346 50.3204C90.2346 50.0845 90.3127 49.9273 90.3127 49.6914C90.3127 49.4555 90.3127 49.2982 90.3127 49.0623C90.3127 48.9051 90.2346 48.6692 90.1565 48.5906C90.0783 48.4333 89.9221 48.3547 89.7659 48.2761C89.6096 48.1974 89.3753 48.1188 89.0628 48.1188H88.2816V51.3425ZM88.2816 47.2539H88.9847C89.4534 47.2539 89.844 47.3325 90.0783 47.4112C90.3908 47.5684 90.5471 47.7257 90.7814 47.8829C90.9376 48.1188 91.0158 48.3547 91.0939 48.6692C91.172 48.9837 91.172 49.2982 91.172 49.6127C91.172 50.0059 91.172 50.399 91.0939 50.7135C91.0158 51.028 90.9376 51.2639 90.7814 51.4998C90.6252 51.7357 90.3908 51.8929 90.1565 52.0502C89.9221 52.2074 89.5315 52.2074 89.1409 52.2074H87.4223V43.7943H90.7814V44.6592H88.2816V47.2539ZM84.6881 48.512L85.7818 43.7943H86.7192L85.0787 50.2418C84.9224 50.7135 84.8443 51.1067 84.6881 51.3425C84.5318 51.5784 84.3756 51.8143 84.2975 51.9716C84.1412 52.1288 83.985 52.2074 83.8288 52.2074C83.6725 52.2074 83.5163 52.2861 83.3601 52.2861H82.8913V51.5784H83.3601C83.5163 51.5784 83.6725 51.4998 83.8288 51.3425C83.985 51.1853 84.0631 50.8708 84.2194 50.5563L84.3756 50.0845L82.5789 43.9516H83.5163L84.6881 48.512ZM80.8602 52.2074V44.6592H79.0635V52.2074H78.126V43.7943H81.7977V52.2074H80.8602ZM75.47 43.7943C76.0949 43.7943 76.5636 43.9516 76.8761 44.3447C77.1886 44.7378 77.3448 45.131 77.3448 45.76L76.4074 45.9173C76.4074 45.5241 76.3293 45.2882 76.173 45.0523C76.0168 44.8165 75.7825 44.7378 75.47 44.7378C75.3137 44.7378 75.1575 44.8165 75.0013 44.8951C74.845 44.9737 74.7669 45.131 74.6888 45.2096C74.6107 45.3669 74.6107 45.5241 74.5325 45.6814C74.5325 45.8386 74.5325 45.9959 74.5325 46.1531V50.399C74.5325 50.5563 74.5325 50.6349 74.5325 50.7922C74.5325 50.9494 74.6107 51.028 74.6888 51.1853C74.7669 51.2639 74.845 51.4212 75.0013 51.4998C75.0794 51.5784 75.2356 51.6571 75.47 51.6571C75.7825 51.6571 76.0168 51.5784 76.173 51.3425C76.3293 51.1853 76.4074 50.8708 76.4074 50.399L77.3448 50.5563C77.3448 51.1853 77.1886 51.6571 76.8761 51.9716C76.5636 52.2861 76.0949 52.4433 75.47 52.4433C74.845 52.4433 74.3763 52.2861 74.0638 51.8929C73.7513 51.4998 73.5951 51.028 73.5951 50.399V46.2318C73.5951 45.9173 73.5951 45.6814 73.6732 45.3669C73.7513 45.0524 73.8295 44.8165 73.9857 44.5806C74.1419 44.3447 74.2982 44.1874 74.5325 44.0302C74.7669 43.7943 75.0794 43.7943 75.47 43.7943ZM69.3766 52.2074V43.7943H72.9701V44.6592H70.3141V47.4898H72.5796V48.3547H70.3141V51.2639H72.9701V52.1288H69.3766V52.2074ZM65.9394 47.9616H66.5643C66.8768 47.9616 67.1112 47.8829 67.2674 47.8043C67.4237 47.7257 67.5799 47.5684 67.658 47.4898C67.7361 47.3325 67.8143 47.1753 67.8143 47.018C67.8143 46.8608 67.8143 46.6249 67.8143 46.389C67.8143 46.1531 67.8143 45.9173 67.7361 45.76C67.7361 45.5241 67.658 45.3669 67.5799 45.2096C67.5018 45.0523 67.3455 44.9737 67.1893 44.8951C67.0331 44.8165 66.7987 44.7378 66.4862 44.7378H65.7831V47.9616H65.9394Z" fill="white"/>
</svg>
